<?xml version="1.0" encoding="UTF-8" standalone="no"?>
<!-- Created with Inkscape (http://www.inkscape.org/) -->

<svg
   xmlns:dc="http://purl.org/dc/elements/1.1/"
   xmlns:cc="http://creativecommons.org/ns#"
   xmlns:rdf="http://www.w3.org/1999/02/22-rdf-syntax-ns#"
   xmlns:svg="http://www.w3.org/2000/svg"
   xmlns="http://www.w3.org/2000/svg"
   xmlns:sodipodi="http://sodipodi.sourceforge.net/DTD/sodipodi-0.dtd"
   xmlns:inkscape="http://www.inkscape.org/namespaces/inkscape"
   width="50.433552mm"
   height="73.549194mm"
   viewBox="0 0 178.70156 260.60738"
   id="svg4356"
   version="1.1"
   inkscape:version="0.91 r13725"
   sodipodi:docname="licket1.svg">
  <defs
     id="defs4358" />
  <sodipodi:namedview
     id="base"
     pagecolor="#ffffff"
     bordercolor="#666666"
     borderopacity="1.0"
     inkscape:pageopacity="0.0"
     inkscape:pageshadow="2"
     inkscape:zoom="0.49497475"
     inkscape:cx="55.607447"
     inkscape:cy="-207.16889"
     inkscape:document-units="px"
     inkscape:current-layer="layer1"
     showgrid="false"
     inkscape:window-width="1920"
     inkscape:window-height="1016"
     inkscape:window-x="0"
     inkscape:window-y="36"
     inkscape:window-maximized="1"
     fit-margin-top="0"
     fit-margin-left="0"
     fit-margin-right="0"
     fit-margin-bottom="0" />
  <metadata
     id="metadata4361">
    <rdf:RDF>
      <cc:Work
         rdf:about="">
        <dc:format>image/svg+xml</dc:format>
        <dc:type
           rdf:resource="http://purl.org/dc/dcmitype/StillImage" />
        <dc:title></dc:title>
      </cc:Work>
    </rdf:RDF>
  </metadata>
  <g
     inkscape:label="Layer 1"
     inkscape:groupmode="layer"
     id="layer1"
     transform="translate(-4.0981048,-0.87504069)">
    <g
       transform="translate(-271.93706,-625.50719)"
       id="g4329"
       inkscape:export-xdpi="90"
       inkscape:export-ydpi="90">
      <path
         inkscape:connector-curvature="0"
         id="path5118-6-9-5-9"
         d="m 366.68412,633.09638 -83.87125,30.76077 12.35991,115.6639 71.51134,40.7137 67.097,-37.93775 14.12573,-118.43985 z"
         style="fill:#ff0000;fill-opacity:1;fill-rule:evenodd;stroke:#0f0000;stroke-width:12.5828476;stroke-linecap:round;stroke-linejoin:miter;stroke-miterlimit:10;stroke-dasharray:none;stroke-opacity:1" />
      <path
         sodipodi:nodetypes="cccccccccccc"
         inkscape:connector-curvature="0"
         id="path5301-6"
         d="m 368.08817,644.30709 0.51547,104.87381 0,0 -60.82502,41.83643 0,0 -2.37118,-13.56999 -4.28571,-0.71429 -11.73792,-109.31936 -0.35714,0.35714 78.18888,-28.0886 0,0 z"
         style="opacity:0.42900002;fill:#800000;fill-rule:evenodd;stroke:none;stroke-width:1px;stroke-linecap:butt;stroke-linejoin:miter;stroke-opacity:1" />
      <path
         inkscape:connector-curvature="0"
         id="path4958-7-0-2"
         d="m 394.43226,738.87874 c -1.38769,-0.98477 -38.1617,8.53449 -39.54939,8.86273 -1.38769,0.32826 -30.18243,19.03848 -31.5701,19.69497 -1.38771,0.65652 -16.65238,20.02322 -16.65238,20.02322 0,0 -11.44852,19.695 -12.14239,21.99274 -0.69382,2.29773 -1.04075,32.16846 -1.04075,32.16846 l 19.42777,25.27524 33.99859,12.14521 29.48859,-2.95424 26.71317,-9.84748 12.48927,-30.19897 1.73462,-24.61871 -3.12229,-29.87073 z"
         style="fill:#ff0000;fill-rule:evenodd;stroke:none;stroke-width:0.92243195px;stroke-linecap:butt;stroke-linejoin:miter;stroke-opacity:1" />
      <path
         inkscape:connector-curvature="0"
         id="path3361-73-4-6-1"
         d="m 368.11961,653.06767 -37.51891,87.45094 0,0 13.80289,0.25582 0,0 7.50695,-20.21052 0,0 30.88583,0.51165 -0.18768,0 8.23329,19.44305 1.75063,0 13.80304,0.25582 -0.50024,-0.46894 z"
         style="fill:#ffffff;fill-rule:evenodd;stroke:none;stroke-width:0.46795863px;stroke-linecap:butt;stroke-linejoin:miter;stroke-opacity:1"
         sodipodi:nodetypes="cccccccccccccc" />
      <path
         sodipodi:nodetypes="cccccc"
         inkscape:connector-curvature="0"
         id="path3363-6-8-1-7"
         d="m 357.5315,708.53996 22.76262,0.25581 0,0 -12.03955,-25.69181 0,-0.008 z"
         style="fill:#ff0000;fill-rule:evenodd;stroke:none;stroke-width:0.46795863px;stroke-linecap:butt;stroke-linejoin:miter;stroke-opacity:1" />
      <path
         sodipodi:nodetypes="ccccc"
         inkscape:connector-curvature="0"
         id="path4569-5-3-9-8"
         d="m 412.98198,760.56284 c -42.09665,13.10439 -35.23527,35.69209 -44.12858,42.20249 -4.05709,2.77126 -8.55811,-0.63273 -9.26045,-3.70613 -3.87001,-7.36193 12.04806,-20.58883 26.57617,-28.08647 13.53899,-6.85335 26.81286,-10.40989 26.81286,-10.40989 z"
         style="fill:#000000;fill-rule:evenodd;stroke:none;stroke-width:0.58108979px;stroke-linecap:butt;stroke-linejoin:miter;stroke-opacity:1" />
      <path
         sodipodi:nodetypes="cssccccccsssccccscc"
         d="m 397.33033,737.56593 c 13.12824,-2.12333 14.42119,11.95227 3.59869,11.96906 -21.81873,0.0337 -38.14143,4.36697 -56.54539,13.9424 -18.40407,9.57541 -34.50387,24.56005 -42.10347,46.86193 -5.07958,23.0996 10.7257,41.27482 13.84187,43.104 9.16525,9.13683 32.45182,21.38809 62.06447,15.64971 18.52712,-6.19787 26.19852,-22.08188 27.66827,-38.56935 0.82175,-9.67119 1.10145,-18.8767 0.95105,-27.9505 0,0 0.44768,-33.13907 25.71462,-24.58847 6.41564,1.65435 4.90581,12.835 -1.96957,12.13103 l -5.26931,-0.53956 c -3.87419,-0.39666 -4.92738,7.63759 -5.3243,17.11006 -0.38096,9.09235 0.21341,9.55877 -1.32933,27.81394 -1.71518,19.24073 -13.94479,39.37839 -32.4646,45.8816 -25.0726,8.88548 -60.31456,0.93097 -78.20428,-16.6605 -14.86635,-12.34888 -25.03315,-35.35407 -19.29722,-54.81627 7.67852,-23.56252 21.32682,-39.95584 39.5315,-51.30625 9.10228,-5.67519 19.50005,-10.24597 30.54775,-13.74367 15.64543,-5.59183 27.16909,-5.88444 38.58925,-6.28916 z"
         style="fill:#000000;fill-rule:evenodd;stroke:none;stroke-width:0.89999998;stroke-linecap:butt;stroke-linejoin:miter;stroke-miterlimit:4;stroke-dasharray:none;stroke-opacity:1"
         id="path4215-5-6-6-9-5-5"
         inkscape:connector-curvature="0" />
      <path
         sodipodi:nodetypes="ccccc"
         inkscape:connector-curvature="0"
         id="path4569-5-3-9-4-47-7"
         d="m 332.71677,886.98962 c -28.40836,-2.43179 -27.47332,-15.96635 -34.03414,-18.58859 -2.96331,-1.08427 -5.28257,1.36327 -5.26448,3.17765 -1.33126,4.60347 10.64716,10.18385 20.89597,12.69949 9.53095,2.26894 18.40265,2.71145 18.40265,2.71145 z"
         style="fill:#000000;fill-rule:evenodd;stroke:none;stroke-width:0.58108979px;stroke-linecap:butt;stroke-linejoin:miter;stroke-opacity:1" />
      <path
         sodipodi:nodetypes="cassccscccccc"
         inkscape:connector-curvature="0"
         id="path5569"
         d="m 368.06196,753.37427 c 0,0 -17.97134,23.32236 -24.50775,36.41135 -5.20484,10.42257 -9.92241,21.80799 -11.45331,33.01977 -0.95849,7.01965 0.17421,14.65285 2.78324,21.23975 4.48865,11.33229 26.01022,25.70188 26.01022,25.70188 l 0,0 c 0,0 -12.57674,1.87738 -25.22203,-4.28365 -10.44791,-5.09043 -29.95117,-17.84853 -29.95117,-17.84853 l -5.82531,-26.95231 10.28357,-29.44421 21.13329,-19.99139 22.1064,-12.49414 z"
         style="opacity:0.14200003;fill:#a00000;fill-opacity:1;fill-rule:evenodd;stroke:none;stroke-width:1.05020559px;stroke-linecap:butt;stroke-linejoin:miter;stroke-opacity:1" />
    </g>
  </g>
</svg>
