<?xml version="1.0" encoding="UTF-8" standalone="no"?>
<!-- Created with Inkscape (http://www.inkscape.org/) -->

<svg
   xmlns:dc="http://purl.org/dc/elements/1.1/"
   xmlns:cc="http://creativecommons.org/ns#"
   xmlns:rdf="http://www.w3.org/1999/02/22-rdf-syntax-ns#"
   xmlns:svg="http://www.w3.org/2000/svg"
   xmlns="http://www.w3.org/2000/svg"
   xmlns:sodipodi="http://sodipodi.sourceforge.net/DTD/sodipodi-0.dtd"
   xmlns:inkscape="http://www.inkscape.org/namespaces/inkscape"
   width="50.433552mm"
   height="73.549194mm"
   viewBox="0 0 178.70156 260.60738"
   id="svg4356"
   version="1.1"
   inkscape:version="0.91 r13725"
   sodipodi:docname="licket2.svg">
  <defs
     id="defs4358" />
  <sodipodi:namedview
     id="base"
     pagecolor="#ffffff"
     bordercolor="#666666"
     borderopacity="1.0"
     inkscape:pageopacity="0.0"
     inkscape:pageshadow="2"
     inkscape:zoom="1.4"
     inkscape:cx="-68.10138"
     inkscape:cy="62.313394"
     inkscape:document-units="px"
     inkscape:current-layer="layer1"
     showgrid="false"
     inkscape:window-width="1920"
     inkscape:window-height="1016"
     inkscape:window-x="0"
     inkscape:window-y="36"
     inkscape:window-maximized="1"
     fit-margin-top="0"
     fit-margin-left="0"
     fit-margin-right="0"
     fit-margin-bottom="0" />
  <metadata
     id="metadata4361">
    <rdf:RDF>
      <cc:Work
         rdf:about="">
        <dc:format>image/svg+xml</dc:format>
        <dc:type
           rdf:resource="http://purl.org/dc/dcmitype/StillImage" />
        <dc:title></dc:title>
      </cc:Work>
    </rdf:RDF>
  </metadata>
  <g
     inkscape:label="Layer 1"
     inkscape:groupmode="layer"
     id="layer1"
     transform="translate(-4.0981048,-0.87504069)">
    <path
       style="fill:#ff0000;fill-opacity:1;fill-rule:evenodd;stroke:#0f0000;stroke-width:12.5828476;stroke-linecap:round;stroke-linejoin:miter;stroke-miterlimit:10;stroke-dasharray:none;stroke-opacity:1"
       d="m 94.74706,7.58919 -83.87125,30.76077 12.35991,115.6639 71.51134,40.7137 67.097,-37.93775 14.12573,-118.43985 z"
       id="path5118-6-9-5-9"
       inkscape:connector-curvature="0" />
    <path
       style="opacity:0.42900002;fill:#950000;fill-opacity:1;fill-rule:evenodd;stroke:none;stroke-width:1px;stroke-linecap:butt;stroke-linejoin:miter;stroke-opacity:1"
       d="m 96.018181,122.24514 3.928571,0 50.825018,42.19357 0,0 2.37118,-13.56999 4.28571,-0.71429 C 161.17151,186.0766 169.88093,5.9684348 169.88086,42.085068 153.48653,37.425598 94.697573,13.800506 94.90627,13.817897 Z"
       id="path5301-6"
       inkscape:connector-curvature="0"
       sodipodi:nodetypes="ccccccccc" />
    <path
       style="fill:#ff0000;fill-rule:evenodd;stroke:none;stroke-width:0.92243195px;stroke-linecap:butt;stroke-linejoin:miter;stroke-opacity:1"
       d="m 155.71816,151.63396 c 17.31775,-43.48912 -71.547317,-27.40095 -72.931413,-27.07852 -1.384095,0.32246 -30.104246,18.70191 -31.488322,19.3468 -1.384115,0.64491 -16.609244,19.66924 -16.609244,19.66924 0,0 -11.418864,19.34683 -12.110937,21.60395 -0.692023,2.25711 -1.038054,31.59977 -1.038054,31.59977 l 19.377445,24.82842 33.910522,11.9305 29.412203,-2.90201 26.64397,-9.6734 12.45692,-29.6651 1.73013,-24.18349 -3.1142,-29.34267 c 0,0 11.9234,-1.51889 13.76098,-6.13349 z"
       id="path4958-7-0-2"
       inkscape:connector-curvature="0"
       sodipodi:nodetypes="scsccccccccccs" />
    <path
       style="fill:#ffffff;fill-rule:evenodd;stroke:none;stroke-width:0.46795863px;stroke-linecap:butt;stroke-linejoin:miter;stroke-opacity:1"
       d="m 95.110652,27.382017 -37.517578,87.451173 13.802735,0.25586 7.505859,-20.210939 30.886712,0.511718 -0.1875,0 8.23242,19.443361 1.75,0 13.80469,0.25586 -0.50195,-0.46875 -37.775388,-87.238283 z m 0.134766,30.027344 0,0.0098 12.041012,25.691406 -22.763668,-0.255859 10.722656,-25.445312 z"
       id="path3361-73-4-6-1"
       inkscape:connector-curvature="0" />
    <path
       style="fill:#000000;fill-rule:evenodd;stroke:none;stroke-width:0.58108979px;stroke-linecap:butt;stroke-linejoin:miter;stroke-opacity:1"
       d="m 141.04492,135.05565 c -42.09665,13.10439 -35.23527,35.69209 -44.12858,42.20249 -4.05709,2.77126 -8.55811,-0.63273 -9.26045,-3.70613 -3.87001,-7.36193 12.04806,-20.58883 26.57617,-28.08647 13.53899,-6.85335 26.81286,-10.40989 26.81286,-10.40989 z"
       id="path4569-5-3-9-8"
       inkscape:connector-curvature="0"
       sodipodi:nodetypes="ccccc" />
    <path
       inkscape:connector-curvature="0"
       id="path4215-5-6-6-9-5-5"
       style="fill:#000000;fill-rule:evenodd;stroke:none;stroke-width:0.89999998;stroke-linecap:butt;stroke-linejoin:miter;stroke-miterlimit:4;stroke-dasharray:none;stroke-opacity:1"
       d="m 125.39327,112.23731 c 12.94967,-1.94476 10.13548,11.7737 3.59869,11.79049 -21.81869,0.056 -38.14143,4.36697 -56.54539,13.9424 -18.40407,9.57541 -34.50387,24.56005 -42.10347,46.86193 -5.07958,23.0996 10.7257,41.27482 13.84187,43.104 9.16525,9.13683 32.45182,21.38809 62.06447,15.64971 18.52712,-6.19787 26.19852,-22.08188 27.66827,-38.56935 0.82175,-9.67119 1.10145,-18.8767 0.95105,-27.9505 0,0 0.44768,-33.13907 25.71462,-24.58847 6.41564,1.65435 4.90581,12.835 -1.96957,12.13103 l -5.26931,-0.53956 c -3.87419,-0.39666 -4.92738,7.63759 -5.3243,17.11006 -0.38096,9.09235 0.21341,9.55877 -1.32933,27.81394 -1.71518,19.24073 -13.94479,39.37839 -32.4646,45.8816 -25.0726,8.88548 -60.31456,0.93097 -78.20428,-16.6605 -14.86635,-12.34888 -25.03315,-35.35407 -19.29722,-54.81627 7.67852,-23.56252 21.32682,-39.95584 39.5315,-51.30625 9.10228,-5.67519 19.50005,-10.24597 30.54775,-13.74367 15.64543,-5.59183 27.16909,-5.70587 38.58925,-6.11059 z"
       sodipodi:nodetypes="cssccccccsssccccscc" />
    <path
       style="fill:#000000;fill-rule:evenodd;stroke:none;stroke-width:0.58108979px;stroke-linecap:butt;stroke-linejoin:miter;stroke-opacity:1"
       d="m 60.77971,261.48243 c -28.40836,-2.43179 -27.47332,-15.96635 -34.03414,-18.58859 -2.96331,-1.08427 -5.28257,1.36327 -5.26448,3.17765 -1.33126,4.60347 10.64716,10.18385 20.89597,12.69949 9.53095,2.26894 18.40265,2.71145 18.40265,2.71145 z"
       id="path4569-5-3-9-4-47-7"
       inkscape:connector-curvature="0"
       sodipodi:nodetypes="ccccc" />
    <path
       style="opacity:0.14200003;fill:#a00000;fill-opacity:1;fill-rule:evenodd;stroke:none;stroke-width:1.05020559px;stroke-linecap:butt;stroke-linejoin:miter;stroke-opacity:1"
       d="m 159.60169,151.61818 c 0,0 -13.75429,-5.2616 -21.67375,6.01374 -25.81355,58.26488 -18.82909,83.80423 -102.046981,67.9728 l 0,0 c 0,0 8.155182,10.28684 22.843761,15.13446 12.136142,4.00523 37.415659,9.25898 37.415659,9.25898 l 26.207771,-14.23101 15.83259,-27.46647 -0.12949,-28.78093 c 13.61786,-17.51643 17.75886,-15.71015 21.55044,-27.90157 z"
       id="path5569"
       inkscape:connector-curvature="0"
       sodipodi:nodetypes="ccccsccccc" />
  </g>
</svg>
